# xmcd
#
# Track frame offsets: 
#        150
#        19058
#        33514
#        45254
#        64019
#        78000
#        92667
#        112191
#        128252
#        143934
#        155912
#        167421
#        182134
#        194701
#        203965
#        218508
#
# Disc length: 3072 seconds
#
# Revision: 0
# Processed by: cddbd v1.5.2PL0 Copyright (c) Steve Scherf et al.
# Submitted via: ExactAudioCopy v0.99pb5
#
DISCID=d60bfe10
DTITLE=Lightnin' Hopkins - In Berkeley
DYEAR=2012
DGENRE=Blues
TTITLE0=Please Settle In Vetnam
TTITLE1=Up On Telegraph (Avenue)
TTITLE2=Wipe Your Feet On The Floor
TTITLE3=Send My Child Home To Me
TTITLE4=Selling Wine
TTITLE5=Brand New Lock
TTITLE6=Have You Ever Loved A Woman
TTITLE7=Little And Low
TTITLE8=Hold Up Your Head
TTITLE9=Good Times Here
TTITLE10=Annie's Boogie
TTITLE11=Black And Evil
TTITLE12=What'd I Say?
TTITLE13=I Hear You Calling Me
TTITLE14=Trouble In Mind
TTITLE15=Come On Baby
EXTD=
EXTT0=
EXTT1=
EXTT2=
EXTT3=
EXTT4=
EXTT5=
EXTT6=
EXTT7=
EXTT8=
EXTT9=
EXTT10=
EXTT11=
EXTT12=
EXTT13=
EXTT14=
EXTT15=
PLAYORDER=
